<?xml version="1.0" standalone="no"?>
<!DOCTYPE svg PUBLIC "-//W3C//DTD SVG 20010904//EN"
 "http://www.w3.org/TR/2001/REC-SVG-20010904/DTD/svg10.dtd">
<svg version="1.0" xmlns="http://www.w3.org/2000/svg"
 width="1920.000000pt" height="1920.000000pt" viewBox="0 0 1920.000000 1920.000000"
 preserveAspectRatio="xMidYMid meet">

<g transform="translate(0.000000,1920.000000) scale(0.100000,-0.100000)"
fill="#000000" stroke="none">
<path d="M9235 14390 c-1154 -101 -2165 -559 -2979 -1350 -821 -799 -1319
-1840 -1432 -2995 -22 -228 -22 -651 0 -880 47 -477 149 -905 323 -1345 54
-137 202 -445 275 -573 324 -571 769 -1078 1291 -1473 122 -92 300 -214 393
-268 31 -19 31 -19 37 -125 7 -144 46 -251 127 -354 111 -139 276 -219 455
-220 152 -1 291 52 399 153 35 33 65 57 68 55 3 -3 101 -29 220 -59 340 -86
610 -126 984 -146 478 -25 1042 40 1510 174 l111 32 59 -53 c162 -145 380
-194 579 -129 246 79 405 296 405 552 l0 95 38 21 c82 48 333 222 437 303 918
714 1544 1719 1770 2840 106 524 124 1064 55 1593 -206 1568 -1187 2943 -2604
3654 -517 259 -1029 411 -1636 484 -157 18 -727 28 -885 14z m844 -305 c1017
-112 1941 -547 2665 -1255 249 -243 431 -462 614 -737 698 -1046 924 -2358
616 -3583 -186 -743 -544 -1403 -1071 -1975 -124 -134 -249 -253 -413 -391
-166 -140 -412 -318 -424 -307 -3 3 -6 404 -6 891 l0 885 79 106 c43 58 99
138 123 176 26 41 77 98 121 138 98 88 213 224 299 357 512 784 476 1957 -81
2688 -122 160 -273 303 -417 394 -43 27 -82 65 -130 126 -94 119 -336 359
-469 466 -454 363 -981 589 -1565 673 -196 28 -674 25 -870 -5 -684 -107
-1268 -396 -1748 -866 -145 -141 -232 -241 -335 -379 l-66 -88 -26 51 c-81
161 -266 259 -437 232 -186 -28 -329 -162 -367 -340 -8 -37 -11 -383 -11
-1157 0 -1197 1 -1223 55 -1425 110 -406 375 -752 738 -958 72 -41 97 -62 137
-116 l50 -65 0 -896 0 -896 -31 18 c-49 29 -322 235 -417 315 -131 110 -436
418 -544 548 -409 496 -692 1024 -867 1615 -117 397 -169 745 -178 1180 -6
290 4 481 38 725 177 1269 888 2403 1954 3115 206 137 320 203 530 307 525
258 1083 405 1715 452 118 8 601 -4 739 -19z m-57 -1645 c421 -64 816 -215
1163 -446 117 -78 299 -220 352 -275 l32 -34 -117 -1 c-445 -4 -868 -258
-1164 -698 -262 -391 -391 -869 -375 -1391 10 -323 64 -582 179 -862 152 -372
412 -690 714 -874 l84 -52 -2 -386 -3 -386 -120 -53 c-224 -100 -486 -177
-745 -217 -163 -26 -558 -31 -740 -10 -305 35 -579 111 -874 242 l-86 38 0
336 0 337 87 41 c495 238 826 713 882 1270 14 137 15 2237 1 2312 -43 230
-268 389 -492 349 -142 -25 -258 -114 -321 -247 l-32 -68 -5 -1120 c-5 -1075
-6 -1121 -24 -1151 -54 -90 -188 -87 -237 6 -18 33 -19 80 -19 1120 0 1185 2
1149 -57 1249 -85 146 -257 234 -421 216 l-57 -6 45 41 c449 414 1037 675
1665 739 151 16 530 5 687 -19z m-3356 -1069 c68 -41 64 28 64 -1173 0 -1196
-2 -1147 63 -1257 89 -148 270 -232 434 -202 169 31 294 140 343 299 19 62 20
97 20 1154 0 980 2 1093 16 1124 35 74 143 99 203 48 18 -14 37 -36 44 -48 9
-16 13 -282 17 -1142 l5 -1120 37 -75 c65 -130 176 -214 317 -240 222 -39 442
114 490 339 8 37 11 375 11 1128 0 913 2 1080 14 1109 20 47 69 75 130 75 43
0 53 -4 87 -39 l39 -39 0 -1145 c0 -990 -2 -1156 -15 -1228 -56 -298 -206
-558 -431 -748 -109 -91 -225 -161 -343 -208 -110 -43 -132 -56 -156 -88 -20
-26 -20 -46 -25 -1293 -5 -1190 -6 -1270 -23 -1313 -26 -68 -79 -123 -149
-158 -148 -74 -321 -14 -395 137 l-28 57 -5 1270 c-4 1009 -8 1275 -18 1293
-17 30 -42 45 -152 90 -406 165 -683 494 -782 930 -22 97 -22 103 -26 1222 -2
782 0 1136 8 1162 5 20 26 50 45 67 29 25 44 31 83 31 28 0 59 -8 78 -19z
m5077 -15 c339 -102 616 -362 808 -759 134 -279 199 -578 199 -919 0 -256 -31
-458 -106 -686 -139 -426 -396 -757 -714 -921 -88 -45 -123 -71 -143 -106 -9
-15 -13 -366 -17 -1340 l-5 -1320 -29 -53 c-70 -126 -221 -183 -359 -136 -60
20 -131 84 -165 148 l-27 51 -5 1322 c-6 1532 13 1345 -140 1425 -215 113
-387 273 -528 493 -67 103 -165 314 -206 442 -228 711 -72 1541 379 2021 143
152 311 266 475 322 126 43 177 50 340 46 132 -3 168 -7 243 -30z m-4462
-2251 c-33 -75 -122 -100 -194 -56 -70 43 -67 4 -67 951 l0 851 31 62 c43 85
142 248 198 327 l46 65 3 -1078 c2 -1045 1 -1080 -17 -1122z m1199 -2455 c358
-138 713 -202 1115 -203 438 -1 803 69 1209 232 43 18 80 30 82 28 2 -2 4
-322 4 -713 l1 -709 -57 -18 c-93 -28 -340 -84 -469 -106 -228 -38 -391 -53
-660 -58 -467 -10 -847 34 -1274 147 l-123 33 6 36 c3 20 6 341 6 715 0 642 1
678 18 671 9 -4 73 -29 142 -55z"/>
</g>
</svg>
